<?xml version="1.0" encoding="UTF-8" standalone="no"?>
<svg
   id="bearSpreaderSVG"
   view-box="0 0 195 195"
   version="1.1"
   sodipodi:docname="favicon.svg"
   inkscape:version="1.1.2 (08b2f3d93c, 2022-04-05)"
   xmlns:inkscape="http://www.inkscape.org/namespaces/inkscape"
   xmlns:sodipodi="http://sodipodi.sourceforge.net/DTD/sodipodi-0.dtd"
   xmlns="http://www.w3.org/2000/svg"
   xmlns:svg="http://www.w3.org/2000/svg">
  <sodipodi:namedview
     id="namedview43"
     pagecolor="#505050"
     bordercolor="#eeeeee"
     borderopacity="1"
     inkscape:pageshadow="0"
     inkscape:pageopacity="0"
     inkscape:pagecheckerboard="0"
     showgrid="false"
     inkscape:zoom="2.9415642"
     inkscape:cx="55.75265"
     inkscape:cy="126.80328"
     inkscape:window-width="1902"
     inkscape:window-height="1147"
     inkscape:window-x="9"
     inkscape:window-y="44"
     inkscape:window-maximized="1"
     inkscape:current-layer="g80" />
  <defs
     id="defs86" />
  <g
     id="g80"
     transform="translate(0 -822.52)">
    <path
       d="m 2.9298,924.66 -0.26727,8.0181 0.26727,5.3454 0.53454,6.6817 4.009,5.8799 2.6727,10.958 4.5436,9.3544 5.8799,8.8199 6.949,8.5527 5.8799,5.0781 12.027,4.009 19.243,-1.0691 13.096,-8.2853 18.709,-5.8799 16.838,-8.0181 19.778,-10.691 10.424,-4.8109 10.691,-6.4144 -3.2072,-14.165 4.2763,13.363 4.009,-0.2672 8.0181,-0.8018 12.027,-0.8018 7.2163,-2.1382 6.6817,-5.3454 2.1382,-11.76 -1.8709,-9.6217 -1.6036,-5.8799 -2.6727,-10.691 -1.3364,-3.2072 -0.80052,22.98531 -22.451,8.5526 -14.96711,0.80181 -26.06032,13.59765 -47.331127,21.73014 -43.406443,9.3062 -17.105299,-30.46849 z"
       fill="#502d16"
       stroke="#000000"
       stroke-linecap="round"
       stroke-linejoin="round"
       stroke-width="0.26458px"
       id="breadCrust1" />
    <path
       d="m 14.155001,917.71 c 8.0181,-4.5436 15.501999,-9.3544 15.501999,-9.3544 l 12.562,-6.4145 14.699999,-7.2163 14.700002,-7.4835 15.233998,-5.6127 13.631001,-10.691 -2.405403,-4.009 0.801814,-3.4745 3.741799,-6.4145 10.69099,-5.3454 8.81991,-3.2072 17.907,0.80181 20.58,10.156 c 0,0 14.96699,13.363 15.769,14.433 0.8018,1.0691 10.15599,18.442 10.15599,18.442 l 2.1382,13.363 0.80182,10.424 -2.4054,7.7508 -11.49301,6.6817 -10.95799,1.8709 -9.88901,0.80181 h -5.0781 l -9.62169,6.6817 -10.958,4.8108 -10.691,6.949 -16.571,7.7508 -15.502001,6.6818 -16.571002,5.8799 -16.570997,5.0781 -11.225,1.60369 -9.0872,-0.8018 -3.474499,-5.34539 -5.6127,-7.2163 -4.810901,-10.156 -3.207199,-7.7508 -3.7418,-5.3454 -4.009,-5.6127 -4.009,-6.1472 -0.53454,-6.1472 4.8109,-4.2763 z"
       fill="#fff6d5"
       stroke="#502d16"
       stroke-linejoin="round"
       stroke-width="0.26458px"
       id="breadWhite1" />
    <path
       fill="#ff8080"
       stroke="#ff8080"
       stroke-width="0.65px"
       stroke-linecap="butt"
       stroke-linejoin="miter"
       stroke-opacity="1"
       d="m 18.937095,927.37163 c 7.650945,-9.37763 25.668223,-8.01519 34.960521,-17.37267 3.427152,-3.45119 5.339809,-11.05246 9.75232,-12.47436 4.774206,-1.53843 13.302407,-2.38258 14.326436,-1.375 1.305525,1.28456 -7.874697,0.32123 -14.066152,3.43544 -8.200511,4.12474 -12.74648,16.11956 -25.74037,20.4154 -9.484178,3.13551 -22.590757,9.62088 -19.232755,7.37119 z"
       id="jamShine1" />
    <path
       fill="#ff8080"
       stroke="#ff8080"
       stroke-width="0.65px"
       stroke-linecap="butt"
       stroke-linejoin="miter"
       stroke-opacity="1"
       d="m 36.64697,964.99178 c 7.300129,3.42506 12.793353,-7.07828 19.470149,-7.07828 23.722934,0 18.597586,-0.61265 33.235293,-15.23299 2.401861,-2.399 12.028448,-0.377 15.584488,-2.75211 0.35742,-0.23872 5.194,-10.12992 1.2181,-10.12992 -1.10895,0 -0.22765,5.97192 -1.47651,7.3114 -4.699318,5.04026 -14.259128,2.69686 -20.133308,6.61299 -4.805866,3.20391 -5.684916,11.65683 -12.622613,13.97327 -7.886587,2.63327 -19.119825,-3.7393 -24.281542,4.00327 -3.745911,5.61887 -10.994057,3.29237 -10.994057,3.29237 0.0383,0.0573 -0.622134,-0.62567 0,0 z"
       id="jamShine2" />
    <g
       id="spreadingBody">
      <path
         d="m 2.9298,924.66 -0.26727,8.0181 0.26727,5.3454 0.53454,6.6817 4.009,5.8799 2.6727,10.958 4.5436,9.3544 5.8799,8.8199 6.949,8.5527 5.8799,5.0781 12.027,4.009 19.243,-1.0691 13.096,-8.2853 18.709,-5.8799 16.838,-8.0181 19.778,-10.691 10.424,-4.8109 10.691,-6.4144 -3.2072,-14.165 4.2763,13.363 4.009,-0.2672 8.0181,-0.8018 12.027,-0.8018 7.2163,-2.1382 6.6817,-5.3454 2.1382,-11.76 -1.8709,-9.6217 -1.6036,-5.8799 -2.6727,-10.691 -1.3364,-3.2072 -0.80052,22.98531 -22.451,8.5526 -14.96711,0.80181 -26.06032,13.59765 -47.331127,21.73014 -43.406443,9.3062 -17.105299,-30.46849 z"
         fill="#502d16"
         stroke="#000000"
         stroke-linecap="round"
         stroke-linejoin="round"
         stroke-width="0.26458px"
         id="breadCrust2" />
      <path
         id="breadWhite2"
         stroke-width=".26458px"
         stroke-linejoin="round"
         stroke="#502d16"
         fill="#fff6d5"
         d="m14.155 917.71c8.0181-4.5436 15.502-9.3544 15.502-9.3544l12.562-6.4145 14.7-7.2163 14.7-7.4835 15.234-5.6127 13.631-10.691-2.4054-4.009 0.80181-3.4745 3.7418-6.4145 10.691-5.3454 8.8199-3.2072 17.907 0.80181 20.58 10.156s14.967 13.363 15.769 14.433c0.8018 1.0691 10.156 18.442 10.156 18.442l2.1382 13.363 0.80181 10.424-2.4054 7.7508-11.493 6.6817-10.958 1.8709-9.889 0.80181h-5.0781l-9.6217 6.6817-10.958 4.8108-10.691 6.949-16.571 7.7508-15.502 6.6818-16.571 5.8799-16.571 5.0781-11.225 1.6037-9.0872-0.8018-3.4745-5.3454-5.6127-7.2163-4.8109-10.156-3.2072-7.7508-3.7418-5.3454-4.009-5.6127-4.009-6.1472-0.53454-6.1472 4.8109-4.2763z"
         opacity="0" />
      <path
         id="rightEar"
         d="m 133.2,858.78 a 5.479,6.6817 0 0 1 -0.37097,-7.6362 5.479,6.6817 0 0 1 5.7501,-3.0566 5.479,6.6817 0 0 1 4.3347,5.5292 5.479,6.6817 0 0 1 -2.7621,6.868"
         fill="#ff0000"
         stroke="#800000"
         stroke-width="0.601" />
      <path
         id="rightArm"
         d="m 78.13507,887.12562 a 26.861,8.5526 11.78 0 1 -28.1397,-13.32794 26.861,8.5526 11.78 0 1 24.401795,-4.76043 26.861,8.5526 11.78 0 1 28.168475,13.3222 26.861,8.5526 11.78 0 1 -24.368325,4.77629"
         fill="#ff0000"
         stroke="#800000"
         stroke-width="0.601" />
      <path
         id="rightLeg"
         d="m 62.803357,912.0664 a 13.631,25.257 62.698 0 1 -12.117352,23.54036 13.631,25.257 62.698 0 1 -30.636027,2.72693 13.631,25.257 62.698 0 1 12.080718,-23.53721 13.631,25.257 62.698 0 1 30.649986,-2.75438"
         fill="#ff0000"
         stroke="#800000"
         stroke-width="0.601" />
      <path
         d="m 132.86071,889.23054 a 27.55044,48.697311 66.005387 0 1 -24.39606,45.25149 27.55044,48.697311 66.005387 0 1 -60.113937,1.58077 27.55044,48.697311 66.005387 0 1 24.324804,-45.24976 27.55044,48.697311 66.005387 0 1 60.142523,-1.63447"
         stroke-width="0.601004"
         id="belly"
         fill="#ff0000"
         stroke="#800000" />
      <path
         id="leftLeg"
         stroke-width=".601"
         stroke="#800000"
         fill="#f00"
         d="m-359.27 871.16a25.257 13.631 0 0 1-25.17 7.9389 25.257 13.631 0 0 1-22.269-10.154 25.257 13.631 0 0 1 10.302-14.719 25.257 13.631 0 0 1 29.147 0.32713"
         transform="rotate(-27.302)" />
      <path
         d="m 60.911,931.12 a 3.9294,15.918 52.695 0 0 -15.299,8.1452 3.9294,15.918 52.695 0 0 -8.4801,11.935 3.9294,15.918 52.695 0 0 0.46405,0.1406 3.9294,15.918 52.695 0 1 8.8181,-9.8035 3.9294,15.918 52.695 0 1 15.666,-8.091 3.9294,15.918 52.695 0 0 -0.3328,-2.1286 l -0.009,-0.005 a 3.9294,15.918 52.695 0 0 -0.82684,-0.19241 z"
         opacity="0.5"
         stroke-width="0.49758"
         id="leftLegShine"
         fill="#ffffff"
         stroke="#ffffff"
         stroke-linecap="round"
         stroke-linejoin="round" />
      <path
         d="m 44.605,912.25 a 3.9294,15.918 52.695 0 0 -15.299,8.1452 3.9294,15.918 52.695 0 0 -8.4801,11.935 3.9294,15.918 52.695 0 0 0.46405,0.14056 3.9294,15.918 52.695 0 1 8.8181,-9.8035 3.9294,15.918 52.695 0 1 15.666,-8.091 3.9294,15.918 52.695 0 0 -0.3328,-2.1286 l -0.009,-0.005 a 3.9294,15.918 52.695 0 0 -0.82682,-0.19275 z"
         opacity="0.5"
         stroke-width="0.49758"
         id="rightLegShine"
         fill="#ffffff"
         stroke="#ffffff"
         stroke-linecap="round"
         stroke-linejoin="round" />
      <path
         d="m 100.26,884.38 a 7.8483,29.363 59.868 0 0 -29.166,11.577 7.8483,29.363 59.868 0 0 -17.122,20.193 7.8483,29.363 59.868 0 0 0.52452,0.2589 7.8483,29.363 59.868 0 1 18.201,-18.314 7.8483,29.363 59.868 0 1 31.54,-11.156 7.8483,29.363 59.868 0 0 -1.0697,-1.8743 l -0.0176,-0.0109 a 7.8483,29.363 59.868 0 0 -2.8903,-0.67386 z"
         opacity="0.5"
         stroke-width="0.61744"
         id="bellyShine"
         fill="#ffffff"
         stroke="#ffffff"
         stroke-linecap="round"
         stroke-linejoin="round" />
    </g>
    <path
       d="m 114.66,888.4 a 22.317,19.644 0 0 1 2.8315,-24.845 22.317,19.644 0 0 1 28.244,-2.3278 22.317,19.644 0 0 1 8.022,23.951 22.317,19.644 0 0 1 -25.161,11.532"
       stroke-width="0.601"
       id="head"
       fill="#ff0000"
       stroke="#800000" />
    <path
       d="m 150.18,870.35 a 7.7508,5.8799 0 0 1 9.6042,-0.0283 7.7508,5.8799 0 0 1 2.2671,7.0801 7.7508,5.8799 0 0 1 -8.5509,3.3174"
       stroke-width="0.601"
       id="leftEar"
       fill="#ff0000"
       stroke="#800000" />
    <path
       d="m 132.81,858.98 a 11.741,16.72 70.88 0 0 -13.675,4.9511 11.741,16.72 70.88 0 0 -5.5537,11.535 8.3522,6.2808 0 0 1 2.0283,-0.80305 11.741,16.72 70.88 0 1 5.6462,-9.5803 11.741,16.72 70.88 0 1 20.723,-3.6912 11.741,16.72 70.88 0 0 -9.1695,-2.4117 z"
       fill="#ffffff"
       opacity="0.5"
       stroke="#ffffff"
       stroke-linecap="round"
       stroke-linejoin="round"
       stroke-width="0.68191"
       id="faceShine" />
    <path
       d="m 111.81,882.29 a 8.5784,10.454 0 0 1 -6.5012,-11.331 8.5784,10.454 0 0 1 8.4098,-9.2807 8.5784,10.454 0 0 1 8.6101,9.0039"
       fill="#ff0000"
       stroke="#800000"
       stroke-width="0.52906"
       id="nose" />
    <path
       d="m 140.98,870.58 a 1.3587,1.3588 0 0 1 -1.1128,1.5648 1.3587,1.3588 0 0 1 -1.5664,-1.1105 1.3587,1.3588 0 0 1 1.108,-1.5682 1.3587,1.3588 0 0 1 1.5698,1.1057"
       fill="#aa0000"
       stroke="#aa0000"
       stroke-width="0.5844"
       id="leftEye" />
    <path
       d="m 129.46,861.46 a 1.3587,1.3588 0 0 1 -1.1128,1.5648 1.3587,1.3588 0 0 1 -1.5664,-1.1105 1.3587,1.3588 0 0 1 1.108,-1.5682 1.3587,1.3588 0 0 1 1.5698,1.1057"
       fill="#aa0000"
       stroke="#aa0000"
       stroke-width="0.5844"
       id="rightEye" />
    <path
       d="m 114.46,862.75 a 4.4099,7.3165 31.301 0 0 -6.7314,5.242 4.4099,7.3165 31.301 0 0 0.0661,7.3639 4.4099,7.3165 31.301 0 1 0.52865,-6.6254 4.4099,7.3165 31.301 0 1 7.4993,-5.0974 4.4099,7.3165 31.301 0 1 0.94361,0.55397 4.4099,7.3165 31.301 0 0 -1.5384,-1.293 4.4099,7.3165 31.301 0 0 -0.76791,-0.14417 z"
       fill="#ffffff"
       opacity="0.5"
       stroke="#ffffff"
       stroke-linecap="round"
       stroke-linejoin="round"
       stroke-width="0.601"
       id="noseShine" />
    <path
       d="m 105.53103,869.76237 c 0.19229,-0.30978 1.14723,-0.12932 2.43148,0.71924 1.25957,0.83227 2.67128,2.33607 4.15972,3.63256 -0.002,-0.001 0.0553,0.0466 0.054,0.0455 1.08276,0.91174 1.90614,1.55582 2.83687,1.96818 1.67033,0.80524 3.31054,0.43153 3.51114,0.87858 0.0757,0.16864 -1.04653,2.05659 -4.22651,1.30027 -1.37602,-0.34748 -2.67058,-1.09948 -3.85234,-2.14348 -0.02,-0.0177 -0.0399,-0.0353 -0.0597,-0.0531 -1.57735,-1.37075 -3.04725,-3.41769 -3.68381,-4.26626 -0.79784,-1.06363 -1.35869,-1.77899 -1.17083,-2.08152 z"
       stroke-width="0.26458px"
       id="mouth"
       fill="#aa0000"
       stroke="#aa0000" />
    <path
       d="m 111.84,865.59 a 0.80882,0.80892 0 0 1 -0.66246,0.93152 0.80882,0.80892 0 0 1 -0.93243,-0.66109 0.80882,0.80892 0 0 1 0.65957,-0.93356 0.80882,0.80892 0 0 1 0.93447,0.6582"
       stroke-width="0.34789"
       id="rightNostril"
       fill="#aa0000"
       stroke="#aa0000" />
    <path
       d="m 118.39,870 a 0.80882,0.80892 0 0 1 -0.66245,0.93152 0.80882,0.80892 0 0 1 -0.93244,-0.66109 0.80882,0.80892 0 0 1 0.65957,-0.93356 0.80882,0.80892 0 0 1 0.93448,0.6582"
       stroke-width="0.34789"
       id="leftNostril"
       fill="#aa0000"
       stroke="#aa0000" />
    <path
       d="m 58.98,870.34 a 18.11,2.4117 7.3009 0 0 -5.2199,1.3368 18.11,2.4117 7.3009 0 0 0.37505,0.32786 18.11,2.4117 7.3009 0 1 14.915,0.28042 18.11,2.4117 7.3009 0 1 19.457,4.3179 18.11,2.4117 7.3009 0 0 0.97191,-0.96076 l -0.005,-0.006 a 18.11,2.4117 7.3009 0 0 -19.829,-4.6426 18.11,2.4117 7.3009 0 0 -10.665,-0.65323 z"
       opacity="0.5"
       stroke-width="0.47124"
       id="rightArmShine"
       fill="#ffffff"
       stroke="#ffffff"
       stroke-linecap="round"
       stroke-linejoin="round" />
    <path
       fill="#ff0000"
       stroke="#800000"
       stroke-width="0.65px"
       stroke-linecap="butt"
       stroke-linejoin="miter"
       stroke-opacity="1"
       d="m 80.369109,884.69175 c 0.522425,5.8567 -18.123368,6.73104 -21.863375,10.47105 -2.631279,2.63128 -0.57674,8.00261 -5.15006,9.83194 -12.991524,5.1966 -16.708404,2.87931 -28.325329,12.17286 -2.609082,2.08727 -6.786725,1.16781 -8.895558,3.97959 -3.963135,5.28418 1.158217,21.43816 4.447779,26.92076 1.853349,3.08892 6.550605,4.09062 8.661464,7.25691 5.281416,7.92212 2.582661,13.23845 16.818336,10.39132 3.871261,-0.77425 8.868418,-4.15344 13.033518,-4.74846 8.374934,-1.19642 12.830955,1.77777 20.321971,-3.84045 4.993976,-3.74546 5.034894,-8.92356 10.456442,-11.63434 1.984388,-0.9922 8.416582,-0.0704 13.408223,-1.34592 5.66753,-1.44827 12.39608,-6.60177 14.77143,-7.78945 15.13948,-7.56976 -17.94429,-31.14793 -23.444716,-36.09831 -5.489646,-4.94068 -7.925186,-13.1393 -14.240125,-15.5675 z"
       id="jam" />
    <g
       id="knife"
       transform="rotate(75,126.64531,925.07858)">
      <path
         fill="#999999"
         stroke="#999999"
         stroke-width="2.5"
         d="m 111.25941,939.43782 a 9.8274,47.247 63.35 0 1 -15.531588,17.87232 9.8274,47.247 63.35 0 1 -43.24852,21.97594 9.8274,47.247 63.35 0 1 -25.34639,2.89903 l 42.317491,-20.98409 z"
         id="knife1" />
      <path
         fill="#999999"
         stroke="#999999"
         stroke-width="2.5"
         d="m 127.49417,930.98824 a 1.9487,32.884 63.35 0 1 30.82092,-13.33529 1.9487,32.884 63.35 0 1 -27.7888,16.17337 1.9487,32.884 63.35 0 1 -30.933478,13.40084 1.9487,32.884 63.35 0 1 27.662898,-16.11881"
         id="knife2" />
    </g>
    <rect
       id="rect69"
       stroke-width=".601"
       opacity="0"
       height="67.886"
       width="74.568"
       y="98.151"
       x="-133.1" />
    <g
       id="leftArm"
       transform="rotate(45,124.17014,906.42923)">
      <path
         d="m 133.806,904.97559 a 8.5526,26.861 26.0801 0 1 -3.31418,24.95713 8.5526,26.861 26.0801 0 1 -18.16923,23.13378 8.5526,26.861 26.0801 0 1 -2.79524,-17.17902 8.5526,26.861 26.0801 0 1 17.22919,-28.90909"
         id="arm"
         fill="#ff0000"
         stroke="#800000"
         stroke-width="0.601" />
      <path
         id="armShine"
         d="m 110.01317,940.94663 a 3.4745,20.446 25.2391 0 0 0.27311,6.1671 3.4745,20.446 25.2391 0 0 0.57137,-0.27649 3.4745,20.446 25.2391 0 1 4.93561,-16.00965 3.4745,20.446 25.2391 0 1 11.94876,-19.33169 3.4745,20.446 25.2391 0 0 -1.0433,-1.42813 l -0.0104,0.003 a 3.4745,20.446 25.2391 0 0 -12.51449,19.60722 3.4745,20.446 25.2391 0 0 -4.1604,11.26985 z"
         opacity="0.5"
         fill="#ffffff"
         stroke="#ffffff"
         stroke-width="0.601"
         stroke-linecap="round"
         stroke-linejoin="round" />
    </g>
    <path
       id="rightEarShine"
       stroke-width=".57007"
       stroke-linejoin="round"
       stroke-linecap="round"
       stroke="#fff"
       opacity=".5"
       fill="#fff"
       d="m137.58 848.73a2.063 4.1123 39.128 0 0-3.9203 2.8391 2.063 4.1123 39.128 0 0-0.0971 3.9976 2.063 4.1123 39.128 0 0 0.0623 0.0139 2.063 4.1123 39.128 0 1 0.6733-3.5929 2.063 4.1123 39.128 0 1 4.2486-2.7989 2.063 4.1123 39.128 0 0-0.57771-0.40513 2.063 4.1123 39.128 0 0-0.38912-0.0536z" />
    <path
       id="leftEarShine"
       stroke-width=".52451"
       stroke-linejoin="round"
       stroke-linecap="round"
       stroke="#fff"
       opacity=".5"
       fill="#fff"
       d="m159.61 871.48a4.1799 1.7182 2.9019 0 0-4.7291-1.2555 4.1799 1.7182 2.9019 0 0-3.2479 1.8938 4.1799 1.7182 2.9019 0 0 0.0281 0.0489 4.1799 1.7182 2.9019 0 1 3.2877-1.3064 4.1799 1.7182 2.9019 0 1 4.9035 1.4969 4.1799 1.7182 2.9019 0 0-0.0403-0.58864 4.1799 1.7182 2.9019 0 0-0.20198-0.28904z" />
    <path
       fill="none"
       d="m117 937.89c-9.7907 0.36484-12.798-11.176-16.482-14.393"
       id="knife-path" />
    <path
       id="path183"
       d="m 71.619002,887.2413 c 0,0 0,0 0,0 z"
       fill="none"
       stroke="#000000"
       stroke-width="0.65px"
       stroke-linecap="butt"
       stroke-linejoin="miter"
       stroke-opacity="1" />
  </g>
</svg>
