<?xml version="1.0" encoding="UTF-8" standalone="no"?>
<!-- Created with Inkscape (http://www.inkscape.org/) -->

<svg
   width="64.0px"
   height="64.0px"
   viewBox="0 0 64.0 64.0"
   version="1.1"
   id="SVGRoot"
   sodipodi:docname="mask-icon.svg"
   inkscape:version="1.1.2 (08b2f3d93c, 2022-04-05)"
   xmlns:inkscape="http://www.inkscape.org/namespaces/inkscape"
   xmlns:sodipodi="http://sodipodi.sourceforge.net/DTD/sodipodi-0.dtd"
   xmlns="http://www.w3.org/2000/svg"
   xmlns:svg="http://www.w3.org/2000/svg">
  <sodipodi:namedview
     id="namedview14"
     pagecolor="#505050"
     bordercolor="#eeeeee"
     borderopacity="1"
     inkscape:pageshadow="0"
     inkscape:pageopacity="0"
     inkscape:pagecheckerboard="0"
     inkscape:document-units="px"
     showgrid="true"
     inkscape:zoom="12.443434"
     inkscape:cx="28.529101"
     inkscape:cy="27.323646"
     inkscape:window-width="1902"
     inkscape:window-height="1147"
     inkscape:window-x="9"
     inkscape:window-y="44"
     inkscape:window-maximized="1"
     inkscape:current-layer="layer1">
    <inkscape:grid
       type="xygrid"
       id="grid20" />
  </sodipodi:namedview>
  <defs
     id="defs9" />
  <g
     inkscape:label="Layer 1"
     inkscape:groupmode="layer"
     id="layer1">
    <path
       id="head"
       style="fill:#ff0000"
       d="M 32.509766 14.425781 A 22 22 0 0 0 10.509766 36.425781 A 22 22 0 0 0 32.509766 58.425781 A 22 22 0 0 0 54.509766 36.425781 A 22 22 0 0 0 32.509766 14.425781 z M 38.957031 27.822266 A 2.5 2.5 0 0 1 41.457031 30.322266 A 2.5 2.5 0 0 1 38.957031 32.822266 A 2.5 2.5 0 0 1 36.457031 30.322266 A 2.5 2.5 0 0 1 38.957031 27.822266 z M 24.5 28 A 2.5 2.5 0 0 1 27 30.5 A 2.5 2.5 0 0 1 24.5 33 A 2.5 2.5 0 0 1 22 30.5 A 2.5 2.5 0 0 1 24.5 28 z " />
    <ellipse
       style="fill:#ff0000"
       id="leftEar"
       cx="16.597406"
       cy="16.802172"
       rx="8"
       ry="8.5" />
    <ellipse
       style="fill:#ff0000"
       id="rightEar"
       cx="47.811123"
       cy="16.55332"
       rx="8"
       ry="8.5" />
  </g>
</svg>
